<svg width="24" height="24" viewBox="0 0 24 24" fill="none" xmlns="http://www.w3.org/2000/svg">
<path d="M19 3.00024H14.82C14.4 1.84024 13.3 1.00024 12 1.00024C10.7 1.00024 9.6 1.84024 9.18 3.00024H5C3.9 3.00024 3 3.90024 3 5.00024V19.0002C3 20.1002 3.9 21.0002 5 21.0002H19C20.1 21.0002 21 20.1002 21 19.0002V5.00024C21 3.90024 20.1 3.00024 19 3.00024ZM12 3.00024C12.55 3.00024 13 3.45024 13 4.00024C13 4.55024 12.55 5.00024 12 5.00024C11.45 5.00024 11 4.55024 11 4.00024C11 3.45024 11.45 3.00024 12 3.00024ZM12 7.00025C13.66 7.00025 15 8.34025 15 10.0002C15 11.6602 13.66 13.0002 12 13.0002C10.34 13.0002 9 11.6602 9 10.0002C9 8.34025 10.34 7.00025 12 7.00025ZM18 19.0002H6V17.6002C6 15.6002 10 14.5002 12 14.5002C14 14.5002 18 15.6002 18 17.6002V19.0002Z" fill="#FF3214"/>
</svg>
