<svg width="24" height="24" viewBox="0 0 24 24" fill="none" xmlns="http://www.w3.org/2000/svg">
<path d="M13.5002 0.669922C13.5002 0.669922 14.2402 3.31992 14.2402 5.46992C14.2402 7.52992 12.8902 9.19992 10.8302 9.19992C8.76024 9.19992 7.20024 7.52992 7.20024 5.46992L7.23024 5.10992C5.21024 7.50992 4.00024 10.6199 4.00024 13.9999C4.00024 18.4199 7.58024 21.9999 12.0002 21.9999C16.4202 21.9999 20.0002 18.4199 20.0002 13.9999C20.0002 8.60992 17.4102 3.79992 13.5002 0.669922ZM11.7102 18.9999C9.93024 18.9999 8.49024 17.5999 8.49024 15.8599C8.49024 14.2399 9.54024 13.0999 11.3002 12.7399C13.0702 12.3799 14.9002 11.5299 15.9202 10.1599C16.3102 11.4499 16.5102 12.8099 16.5102 14.1999C16.5102 16.8499 14.3602 18.9999 11.7102 18.9999Z" fill="#FF3214"/>
</svg>
