<svg width="100" height="24" fill="none" xmlns="http://www.w3.org/2000/svg"><g clip-path="url(#a)"><path d="M25.32 7.133h-3.596V4.7h9.792v2.434H27.93v9.595h-2.61V7.133Zm4.272 5.005c0-2.633 1.838-4.8 4.483-4.8 3.024 0 4.407 2.39 4.407 5.005 0 .205 0 .445-.035.695H32.14c.078.526.349 1.004.758 1.338.41.334.93.501 1.456.467a2.927 2.927 0 0 0 2.197-.953l1.468 1.325a4.51 4.51 0 0 1-1.644 1.305 4.47 4.47 0 0 1-2.052.413c-2.72 0-4.727-1.94-4.727-4.795h-.004Zm6.38-.741c-.152-1.169-.828-1.958-1.907-1.958-1.08 0-1.756.772-1.96 1.958h3.866Zm3.647-3.885h2.566V8.82c.593-.776 1.352-1.482 2.651-1.482 1.942 0 3.073 1.308 3.073 3.422v5.968h-2.566v-5.14c0-1.238-.572-1.874-1.555-1.874-.982 0-1.603.636-1.603 1.874v5.14h-2.566V7.512Zm9.345 4.59c0-3.077 1.976-4.764 4.117-4.764a3.424 3.424 0 0 1 1.576.353c.49.242.917.598 1.245 1.038V4.177h2.565v12.555h-2.565v-1.325c-.309.467-.729.85-1.221 1.11a3.301 3.301 0 0 1-1.6.385c-2.11 0-4.117-1.687-4.117-4.8Zm6.972 0c0-1.53-.996-2.545-2.196-2.545-1.2 0-2.21.998-2.21 2.58 0 1.583 1.013 2.546 2.21 2.546 1.196 0 2.196-1.015 2.196-2.58Zm3.293.036c0-2.633 1.841-4.8 4.483-4.8 3.024 0 4.406 2.39 4.406 5.005 0 .205-.017.445-.034.695h-6.296a2.13 2.13 0 0 0 .759 1.337c.41.334.928.501 1.454.468a2.925 2.925 0 0 0 2.204-.953l1.469 1.325a4.51 4.51 0 0 1-1.645 1.305 4.47 4.47 0 0 1-2.052.413c-2.717 0-4.727-1.94-4.727-4.795h-.02Zm6.383-.741c-.152-1.169-.828-1.958-1.91-1.958-1.083 0-1.756.772-1.96 1.958h3.87Zm3.644-3.885h2.566V9.37c.524-1.273 1.379-2.086 2.89-2.03v2.75h-.135c-1.707 0-2.759 1.043-2.759 3.248v3.405h-2.565v-9.23h.003Z" fill="#FF3214"/><path d="M73.54 16.728v-1.614h1.585v1.614H73.54Zm2.758-8.89h1.286v1.788c.71-1.064 1.724-1.975 3.344-1.975 2.094 0 4.17 1.683 4.17 4.643 0 2.904-2.07 4.625-4.17 4.625a3.91 3.91 0 0 1-1.916-.508 3.954 3.954 0 0 1-1.428-1.384v4.452h-1.3l.014-11.64Zm7.479 4.438c0-2.086-1.418-3.44-3.073-3.44s-3.155 1.392-3.155 3.458c0 2.066 1.535 3.44 3.155 3.44 1.69 0 3.073-1.274 3.073-3.458ZM86.41 7.84h1.3v2.32c.641-1.479 1.91-2.546 3.565-2.477v1.426h-.103c-1.907 0-3.448 1.391-3.448 4.076v3.544h-1.3v-8.89h-.014Zm4.483 4.455c.01-.907.286-1.79.794-2.54a4.56 4.56 0 0 1 2.057-1.667 4.515 4.515 0 0 1 2.63-.235 4.54 4.54 0 0 1 2.316 1.276 4.603 4.603 0 0 1 1.225 2.358 4.63 4.63 0 0 1-.279 2.648 4.581 4.581 0 0 1-1.689 2.046 4.524 4.524 0 0 1-2.53.756 4.47 4.47 0 0 1-3.19-1.315 4.546 4.546 0 0 1-1.334-3.206v-.121Zm7.765 0c0-1.91-1.4-3.478-3.241-3.478-1.842 0-3.19 1.565-3.19 3.478 0 1.912 1.38 3.457 3.224 3.457 1.845 0 3.21-1.548 3.21-3.457h-.003Z" fill="#909090"/><path d="M3.103 4.073a.661.661 0 0 1 .528-.303h10.724s.027.024.041.024l2.414-1.87a3.38 3.38 0 0 0-2.473-.877H3.614C1.652 1.047 0 2.407 0 4.427V6.8l3.103-2.726ZM14.886 8.21l-.059 7.258v1.98l-1.341-1.333H3.614c-.345 0-.366-.299-.366-.647V7.69L0 8.129v7.341c0 2.02 1.655 3.367 3.614 3.367h8.768L17.93 24l-.072-19.194-2.972 3.405Z" fill="#B1B1B1"/><path d="m0 8.976 3.103 2.852V7.654L0 8.08v.897Z" fill="#605958"/><path d="M8.938 14.611 0 8.15l2.63-2.348 6.397 4.653L20.344.005 8.938 14.61Z" fill="#FF3214"/></g><defs><clipPath id="a"><path fill="#fff" d="M0 0h100v24H0z"/></clipPath></defs></svg>