<?xml version="1.0" encoding="utf-8"?><svg viewBox="0 0 22 22" xmlns="http://www.w3.org/2000/svg" xmlns:xlink="http://www.w3.org/1999/xlink"><style>:root>svg{display:none}:root>svg:target{display:block}</style><svg fill="none" viewBox="-1 -1 18 18" id="svg-mail" xmlns="http://www.w3.org/2000/svg"><path d="M13.333 2.667H2.667c-.734 0-1.327.6-1.327 1.333l-.007 8c0 .733.6 1.333 1.334 1.333h10.666c.734 0 1.334-.6 1.334-1.333V4c0-.733-.6-1.333-1.334-1.333zm0 2.666L8 8.667 2.667 5.333V4L8 7.333 13.333 4v1.333z" fill="#fff" opacity=".6"/></svg><svg fill="none" viewBox="-1 -1 18 18" id="svg-mob" xmlns="http://www.w3.org/2000/svg"><path d="M11.333.673L4.667.667c-.734 0-1.334.6-1.334 1.333v12c0 .733.6 1.333 1.334 1.333h6.666c.734 0 1.334-.6 1.334-1.333V2c0-.733-.6-1.327-1.334-1.327zm0 11.994H4.667V3.333h6.666v9.334z" fill="#fff" opacity=".6"/></svg><svg viewBox="-1 -1 18 18" id="svg-next" xmlns="http://www.w3.org/2000/svg"><path d="M8 2.667l-.94.94 3.72 3.726H2.667v1.334h8.113l-3.72 3.726.94.94L13.334 8 8 2.667z"/></svg><svg viewBox="-1 -1 18 18" id="svg-prev" xmlns="http://www.w3.org/2000/svg"><path d="M8 13.333l.94-.94-3.72-3.726h8.113V7.333H5.22l3.72-3.726-.94-.94L2.666 8 8 13.333z"/></svg><svg viewBox="-1 -1 22 22" id="svg-search" xmlns="http://www.w3.org/2000/svg"><path d="M12.917 11.667h-.659l-.233-.225a5.393 5.393 0 001.308-3.525 5.417 5.417 0 10-5.416 5.416 5.393 5.393 0 003.525-1.308l.225.233v.659l4.166 4.158 1.242-1.242-4.158-4.166zm-5 0a3.745 3.745 0 01-3.75-3.75 3.745 3.745 0 013.75-3.75 3.745 3.745 0 013.75 3.75 3.745 3.745 0 01-3.75 3.75z"/></svg><svg fill="none" viewBox="-1 -1 14 14" id="svg-skype" xmlns="http://www.w3.org/2000/svg"><path d="M11.655 7.274c.087-.391.132-.796.132-1.212C11.787 2.946 9.225.42 6.064.42c-.333 0-.66.029-.979.083A3.34 3.34 0 003.32 0C1.486 0 0 1.465 0 3.273c0 .604.167 1.168.456 1.655A5.592 5.592 0 00.34 6.062c0 3.117 2.563 5.644 5.723 5.644.359 0 .709-.033 1.049-.095a3.348 3.348 0 001.57.389C10.513 12 12 10.534 12 8.728c0-.523-.124-1.016-.345-1.454zM8.999 8.758c-.264.37-.655.662-1.163.87-.502.206-1.103.31-1.788.31-.822 0-1.511-.142-2.05-.424a2.66 2.66 0 01-.942-.825c-.244-.345-.366-.688-.366-1.019 0-.206.08-.386.239-.532a.844.844 0 01.598-.219c.196 0 .365.058.503.173.132.11.245.274.336.483.101.23.211.423.328.574.113.147.274.27.48.367.208.096.488.146.831.146.474 0 .862-.1 1.153-.296.286-.191.424-.422.424-.704a.691.691 0 00-.22-.535 1.578 1.578 0 00-.611-.333c-.26-.08-.614-.167-1.05-.256a8.392 8.392 0 01-1.5-.443 2.473 2.473 0 01-.983-.71c-.247-.303-.371-.684-.371-1.13 0-.427.13-.81.389-1.142.255-.33.629-.587 1.111-.761.475-.174 1.04-.261 1.68-.261.51 0 .96.058 1.335.174.377.115.695.271.945.464.252.195.44.401.556.617.119.218.18.434.18.644a.761.761 0 01-.235.544.792.792 0 01-.588.242c-.212 0-.378-.051-.493-.151a1.836 1.836 0 01-.342-.449 1.88 1.88 0 00-.513-.626c-.193-.145-.514-.217-.957-.217-.41 0-.744.08-.991.241-.239.154-.355.331-.355.541a.49.49 0 00.115.328c.08.099.196.184.341.255.15.075.305.135.46.177.16.043.426.108.792.192.464.097.89.208 1.266.327.381.119.71.267.98.44.274.176.49.401.645.671.155.272.232.606.232.995 0 .464-.135.888-.4 1.258z" fill="#fff" opacity=".6"/></svg><svg fill="none" viewBox="-1 -1 18 18" id="svg-tel" xmlns="http://www.w3.org/2000/svg"><path d="M4.413 7.193a10.1 10.1 0 004.394 4.394l1.466-1.467c.18-.18.447-.24.68-.16.747.247 1.554.38 2.38.38.367 0 .667.3.667.667v2.326c0 .367-.3.667-.667.667C7.073 14 2 8.927 2 2.667 2 2.3 2.3 2 2.667 2H5c.367 0 .667.3.667.667 0 .833.133 1.633.38 2.38a.669.669 0 01-.167.68L4.413 7.193z" fill="#fff" opacity=".6"/></svg></svg>